# xmcd
#
# Track frame offsets:
#	150
#	18951
#	36410
#	54329
#	88429
#	108991
#	123740
#	142743
#	162126
#	175645
#	193457
#	211694
#	232076
#	251815
#	268428
#	289876
#
# Disc length: 4112
#
# Revision: 2
# Processed by: cddbd v1.5.1PL0 Copyright (c) Steve Scherf et al.
# Submitted via: CDex 1.50Beta7
# Normalized: r0:DSETVAR1,TDELIM( - );r1:TRMNUM
#
DISCID=f2100e10
DTITLE=Various Artist - El Cofre Merenguero 2004
DYEAR=2004
DGENRE=Merengue
TTITLE0=Bambara Guiti - Tulile
TTITLE1=La Langosta - Amarfis
TTITLE2=Si me dejas no vale - Loquera
TTITLE3=La cita - Oro Duro
TTITLE4=Gato Malo - Kendy De los Santos
TTITLE5=Chiqui Chiquita - El Marron
TTITLE6=Tu me pides que te olvide - Ricky Mota
TTITLE7=Piel de azucar - Loquera
TTITLE8=Merengue Remix - 50 Cent
TTITLE9=Si eso fuera mio - Banda Gorda
TTITLE10=Mama yo quiero - Zeni Ortega
TTITLE11=Dale yuca a esa loca - Mambo con clase
TTITLE12=Enamorame - Papi Sanchez
TTITLE13=El motivo de navidad - Jacubanda
TTITLE14=Se me olvido otra vez - Los Potros
TTITLE15=A mi me gusta aqui - Kinito Mendez
EXTD=YEAR: 2004
EXTT0=
EXTT1=
EXTT2=
EXTT3=
EXTT4=
EXTT5=
EXTT6=
EXTT7=
EXTT8=
EXTT9=
EXTT10=
EXTT11=
EXTT12=
EXTT13=
EXTT14=
EXTT15=
PLAYORDER=
